<?xml version="1.0" standalone="no"?><!DOCTYPE svg PUBLIC "-//W3C//DTD SVG 1.1//EN" "http://www.w3.org/Graphics/SVG/1.1/DTD/svg11.dtd"><svg t="1721183269334" class="icon" viewBox="0 0 1024 1024" version="1.1" xmlns="http://www.w3.org/2000/svg" p-id="1010" xmlns:xlink="http://www.w3.org/1999/xlink" width="200" height="200"><path d="M609.9 345.8c-6.7 0-17.9 6.7-29 11.2-20.1 8.9-42.4 20.1-67 20.1-22.3 0-46.9-11.2-67-20.1-13.4-4.5-26.8-11.2-31.3-11.2-73.7 0-131.8 151.8-131.8 252.3 0 22.3 2.2 42.4 8.9 53.6 6.7 13.4 13.4 15.6 17.9 15.6 29 0 64.8-13.4 118.4-42.4 26.8-15.6 53.6-22.3 84.9-22.3h2.2c29 0 53.6 6.7 80.4 22.3 53.6 31.3 87.1 42.4 118.4 42.4 4.5 0 13.4-2.2 17.9-15.6 6.7-13.4 8.9-31.3 8.9-53.6-0.1-100.4-60.4-252.3-131.8-252.3z m-129.6 172h-29V549c-2.2 8.9-8.9 15.6-17.9 15.6-8.9 0-17.9-6.7-17.9-17.9v-29h-29c-8.9 0-17.9-6.7-17.9-17.9s6.7-15.6 17.9-15.6h29v-29c0-8.9 6.7-17.9 17.9-17.9s17.9 6.7 17.9 17.9v29h29c8.9 0 17.9 6.7 17.9 17.9s-8.9 15.7-17.9 15.7z m122.9 17.8c-18.5 0-33.5-15-33.5-33.5s15-33.5 33.5-33.5 33.5 15 33.5 33.5-15 33.5-33.5 33.5z" fill="#282828" p-id="1011"></path><path d="M511.6 103c-225.9 0-409 183.1-409 409s183.1 409 409 409 409-183.1 409-409-183.1-409-409-409z m252.3 564.4c-11.2 20.1-29 33.5-51.4 33.5-35.7 0-75.9-13.4-134-46.9-22.3-13.4-44.7-17.9-67-17.9-24.6 0-46.9 4.5-69.2 17.9-58.1 33.5-98.3 46.9-134 46.9-20.1 0-38-11.2-49.1-33.5-8.9-17.9-11.2-40.2-11.2-69.2 0-113.9 67-285.8 165.2-285.8 13.4 0 26.8 6.7 44.7 13.4 17.9 6.7 35.7 15.6 53.6 15.6 15.6 0 35.7-8.9 53.6-15.6 15.6-6.7 31.3-13.4 44.7-13.4 100.5 0 165.2 171.9 165.2 285.8 0.1 29-4.4 51.3-11.1 69.2z" fill="#282828" p-id="1012"></path></svg>